<?xml version="1.0" encoding="UTF-8"?>
<!DOCTYPE svg PUBLIC "-//W3C//DTD SVG 1.1//EN" "http://www.w3.org/Graphics/SVG/1.1/DTD/svg11.dtd">
<!-- Creator: CorelDRAW 2020 (64-Bit) -->
<svg xmlns="http://www.w3.org/2000/svg" xml:space="preserve" width="183.927mm" height="183.926mm" version="1.1" style="shape-rendering:geometricPrecision; text-rendering:geometricPrecision; image-rendering:optimizeQuality; fill-rule:evenodd; clip-rule:evenodd"
viewBox="0 0 18392.66 18392.6"
 xmlns:xlink="http://www.w3.org/1999/xlink"
 xmlns:xodm="http://www.corel.com/coreldraw/odm/2003">
 <defs>
  <style type="text/css">
   <![CDATA[
    .fil0 {fill:#FDEEEF;fill-rule:nonzero}
    .fil4 {fill:#FCCEB2;fill-rule:nonzero}
    .fil1 {fill:#C6C3BD;fill-rule:nonzero}
    .fil8 {fill:#8F8375;fill-rule:nonzero}
    .fil6 {fill:#847971;fill-rule:nonzero}
    .fil3 {fill:#585042;fill-rule:nonzero}
    .fil5 {fill:#352F2D;fill-rule:nonzero}
    .fil9 {fill:#5D6161;fill-rule:nonzero}
    .fil7 {fill:#3A3C39;fill-rule:nonzero}
    .fil10 {fill:#373A3A;fill-rule:nonzero}
    .fil2 {fill:#282828;fill-rule:nonzero}
   ]]>
  </style>
 </defs>
 <g id="Layer_x0020_1">
  <metadata id="CorelCorpID_0Corel-Layer"/>
  <path class="fil0" d="M18392.66 9196.29c0,5079.02 -4117.21,9196.31 -9196.29,9196.31 -5079.01,0 -9196.37,-4117.29 -9196.37,-9196.31 0,-5079.08 4117.36,-9196.29 9196.37,-9196.29 5079.08,0 9196.29,4117.21 9196.29,9196.29z"/>
  <path class="fil1" d="M8286.16 18347.79c606.78,-0.01 1213.56,-0.01 1820.35,0.01 -299.43,29.42 -602.98,44.8 -910.14,44.8 -307.19,0 -610.75,-15.38 -910.21,-44.81z"/>
  <path class="fil2" d="M14633.83 16612.95c-43.59,-633.37 -121.21,-1263.48 -184.93,-1894.77 -12.68,-124.01 -13.6,-249.33 -17.09,-373.47 -8.64,-315.22 -42.08,-627.91 -75.7,-940.43 -38.59,-357.83 -69.46,-717 -132.48,-1071.99 -71.66,-403.1 -165.37,-800.27 -320.35,-1180.74 -138.41,-340.3 -356.87,-617.25 -660.65,-824.4 -323.05,-220.22 -672.37,-386.25 -1039.5,-521.02 -320.75,-117.67 -658.5,-172.64 -980.06,-284.91 -56.48,-19.82 -74.8,11.17 -95.29,53.49 -90.29,187.61 -189.36,373.32 -350.94,507.83 -362.81,301.75 -762.02,529.92 -1253.93,514.56 -251.09,-7.82 -493.22,-77.5 -726.95,-167.66 -310.42,-119.8 -614.92,-250.95 -857.42,-491.77 -129.94,-129.12 -240.19,-271.72 -330.53,-430.21 -20.1,-35.3 -30.63,-73.84 -7.55,-113.2 11.78,-17.13 34.14,-22.51 46.08,-39.76 -12.57,12.68 -29.25,19.27 -43.84,29.25 -207.72,84.37 -425.59,144.07 -626.09,244.48 -453.98,227.08 -922.41,424 -1365.42,674.8 -529.75,299.73 -864.56,748.13 -1060.88,1312.41 -125.5,360.79 -192.58,734.64 -252.54,1110.66 -86.63,543.41 -166.68,1087.88 -264.23,1629.8 -43.6,242.06 -41.65,491.24 -80.53,735.04 -81.59,511.4 -112.58,1028.19 -165.93,1542.57 -31.89,-23.24 -64.01,-46.18 -95.59,-69.82 7.49,-73.28 15.66,-146.52 24.27,-219.76 34.46,-292.86 55.46,-587.34 88.23,-880.47 27.4,-245.15 64.13,-489.1 94.89,-733.84 14.15,-112.54 22.08,-225.74 35.88,-338.28 33.83,-275.88 91.78,-547.98 132.11,-822.78 51.06,-347.71 106.97,-694.75 165.9,-1041.24 68.13,-400.69 160.6,-794.09 325.64,-1167.68 212.6,-481.27 531.41,-866.99 995.82,-1126.56 205.35,-114.69 410.25,-229.38 625.07,-326.01 144.61,-64.97 288.3,-132.47 429.84,-203.91 350.22,-176.68 715.97,-312.94 1093.26,-417.12 99.82,-27.49 162.62,-81.95 207.44,-169.78 54.02,-105.87 75.42,-218.79 82.13,-335.82 10.29,-179.47 -14.9,-356.19 -36.4,-533.65 -15.16,-125.2 -63.59,-240.25 -93.74,-360.71 -44.17,-176.37 -63.63,-357.03 -87.04,-536.83 -5.79,-44.47 -17.49,-59.04 -67.18,-60.23 -119.54,-2.83 -207.33,-68.32 -268.99,-168.05 -36.05,-58.26 -55.47,-123.86 -72.15,-189.98 -41.58,-164.95 -77.87,-330.96 -95.44,-500.36 -4.06,-39.27 -5.95,-79.71 -1.34,-118.73 14.54,-123.09 63.76,-191.57 180.89,-259.78 -62.97,-145.08 -126.23,-290.21 -189.03,-435.55 -93.94,-217.45 -132.34,-444.39 -115.48,-680.69 6.89,-96.52 26.66,-190.82 52.74,-283.61 48.23,-171.72 103.55,-341.58 147.13,-514.5 52.66,-208.73 180.51,-341.39 381.94,-407.9 252.88,-83.42 503.15,-173.82 741.2,-294.16 147.36,-74.42 301.04,-128.99 459.57,-174.19 176.17,-50.16 346.83,-44.65 515.96,24.25 73.46,29.77 147.83,57.7 219.82,90.59 188.13,85.62 387.07,125.86 590.83,148.82 87.21,9.74 174.53,19.48 258.36,48.51 128.71,44.47 228.44,123.29 294.48,243.09 30.05,54.75 60.37,109.14 91.11,163.34 39.89,70.56 92.86,128.8 162.81,170.33 248.51,147.72 349.46,373.94 357.41,654.46 7.96,280.53 -54.72,545.39 -162.13,801.72 -60.12,143.65 -129.26,282.83 -218.87,411.37 150.41,74.07 198.51,208.97 206.46,353.13 14.96,270.38 -50.8,522.92 -212.52,745.28 -36.94,50.83 -82.08,93.76 -133.43,130.27 -61.72,43.88 -127.5,59.86 -200.94,30.62 -21.04,9.55 -21.17,30.81 -25.74,49.62 -5.4,22.01 -8.49,44.78 -16.19,65.96 -76.27,211.63 -80.99,432.38 -86.12,653.43 -5.11,224.04 -13.34,448.01 -19.4,672.03 -3.37,121.56 28.44,236.17 77.37,345.68 70.21,157.72 195.28,256.78 358.22,303.16 244.88,69.67 487.73,145 735.32,206.87 538.67,134.23 1050.01,339.89 1516.73,646.9 376,247.45 634.22,585.18 785.31,1007.98 147.4,412.38 249,835.97 309.46,1269.13 75.33,539.22 133.02,1080.48 174.18,1623.46 17.09,223.34 23.52,447.18 41.89,670.65 22.23,271.29 54.02,541.77 78.46,812.8 22.6,251.36 54.57,501.89 75.52,753.24 5.36,64.13 10.43,128.28 15.23,192.44 -27.94,21.01 -56.22,41.59 -84.41,62.3z"/>
  <path class="fil3" d="M3763.6 16616.36c2.1,-19.57 4.25,-39.13 6.44,-58.68 15.77,-140.31 22.44,-281.68 38.92,-421.98 16.48,-140.3 21.62,-281.67 44.61,-421.29 11.45,-69.55 13.17,-140.98 17.66,-211.06 9.55,-150.26 47.31,-295.82 62.67,-444.74 12.16,-117.95 34.32,-235.19 41.14,-353.39 13.69,-237.59 48.43,-471.56 93.89,-704.86 38.29,-196.61 72.47,-394.19 98.67,-593.25 30.54,-232.23 75.09,-462.67 109.1,-694.49 29.95,-204.18 64.09,-407.41 110.08,-608.62 71.53,-312.82 164.19,-618.61 317.55,-902.58 117.73,-217.91 256.36,-421.17 439.49,-590.44 137.91,-127.35 293.98,-230.19 454.92,-326.01 275.64,-164.02 564.92,-300.82 857.29,-431.95 111.17,-49.85 218.9,-107.42 327.86,-162.11 251.24,-126.31 514.98,-221.17 780.1,-312.82 19,-6.47 37.63,-12.27 57.84,-11.59 5.25,3.78 6.96,7.42 5.16,11.19 -1.82,3.63 -3.62,5.38 -5.42,5.38 -28.48,42.06 -14.48,81.67 8.46,119.41 63.22,104.31 130.98,205.25 211.15,297.58 212.67,245.02 477.28,411.87 776.25,533.3 226.43,92.04 456.43,165.5 696.06,215.09 261.32,54.04 513.07,25.74 758.24,-67.52 215.36,-81.95 413.33,-198.52 598.65,-335.86 134.37,-99.46 236.53,-227.36 322.37,-368.88 52.85,-87.05 107.55,-173.98 137.07,-272.5 9.83,-32.48 24.13,-30.19 49.47,-21.95 107.67,35.16 213.61,80.44 324.13,100.52 269.27,48.93 525.33,139.9 781,230.46 383.96,135.99 745.83,318.75 1070.09,567 271.57,207.96 462.14,479.37 585.98,798.26 132.75,341.64 222.71,694.75 289.04,1054.32 47.22,255.78 80.66,513.35 105.1,772.24 16.54,177.09 44.65,352.96 62.84,529.92 15.8,154.73 23.88,310.11 37.85,464.97 20.76,231.12 24.8,463.2 35.83,694.88 6.25,132.09 30.13,263.48 44.09,395.29 14.15,132.08 25.18,264.55 38.77,396.64 14.15,137.73 29.4,275.21 45.02,412.66 7.72,67.4 14.7,135.32 18.92,202.57 10.56,164.77 30.04,328.77 40.06,493.85 -628.54,464.73 -1318.34,851.24 -2055.08,1145.32 -1.07,-104.91 -4.59,-209.85 -9.76,-314.89 -10.77,-220.36 -32.87,-439.63 -14.27,-662.27 18.59,-222.5 13.33,-447.31 -3.51,-671.44 -23.19,-309.98 -3.77,-619.95 62.94,-922.38 107.68,-489.09 153.5,-986.13 215.62,-1481.28 15.11,-120.76 9.17,-243.4 15.11,-365.11 10.1,-203.91 27.48,-407 41.23,-610.65 -68.72,609.99 -89.08,1224.54 -173.43,1833.04 -30.47,219.53 -87.21,433.83 -128.45,651.23 -35.45,187.19 -57.68,375.07 -56.06,566.17 2.55,331.95 9.17,664.16 -1.62,995.83 -10.85,331.35 20.71,660.23 31.47,990.22 -885.55,350.97 -1838.8,567.68 -2834.51,626.58l-1102.93 -0.02c-1019.13,-60.35 -1993.6,-286.56 -2896.76,-652.12 57.02,-420.69 108.43,-842 136.43,-1265.2 28.5,-430.74 94.65,-856.74 124.38,-1286.54 19.44,-280.86 -7.66,-560.92 -38.48,-840.16 -50.95,-461.87 -117.08,-921.71 -184.18,-1381.42 71.46,507.81 130.33,1016.99 187.75,1526.42 48.43,429.66 13.59,854.99 -52.34,1279.54 -38.82,249.87 -46.52,502.16 -63.29,753.92 -15.64,234.91 -49.56,468.05 -82.32,701.22 -23.34,165.94 -41.2,332.59 -60.06,499.1 -697.78,-285.52 -1352.66,-654.29 -1952.29,-1094.07z"/>
  <path class="fil2" d="M5690.96 17700.25c10.48,-98.01 20.67,-196.08 35.28,-293.65 23.01,-153.77 37.8,-308.62 56.92,-462.8 14.61,-117.79 32.01,-235.18 45.06,-352.96 11.53,-104.2 13.91,-209.31 17.91,-313.62 8.29,-215.51 37.69,-427.77 67.54,-640.57 43.75,-311.6 77.25,-624.82 52.37,-939.64 -15.58,-196.9 -33.66,-393.94 -60.97,-590.04 -29.61,-212.66 -47.69,-426.8 -73.42,-640.03 -18.28,-151.35 -42.77,-302.02 -60.68,-453.36 -6.22,-52.7 -0.98,-106.63 -0.98,-168.62 43.29,41.38 37.08,92.46 44.04,135.73 36.4,225.87 69.79,452.16 101.15,678.84 21.28,153.92 34.36,309.03 56.74,462.67 29.32,201.62 46.91,404.6 61.22,607.15 12.13,171.85 12.85,345.02 -7.05,518.07 -14.56,126.15 -23.43,253.24 -39.14,379.51 -14.66,117.8 -31.29,235.32 -43.93,353.24 -10.24,95.56 -21.06,191.51 -22.44,287.47 -2.9,201.37 -25.87,400.56 -48.65,600.15 -17.95,157.28 -32.76,314.82 -55.38,471.57 -18.85,130.58 -32.7,261.8 -47.07,392.97 -26.25,-10.55 -52.39,-21.3 -78.52,-32.08z"/>
  <path class="fil2" d="M12558.14 17758.65l-0.28 -3.92c-14.69,-203.25 -20.22,-407.02 -35.71,-609.84 -7.83,-102.71 2.83,-202.85 3.1,-304.2 0.54,-351.62 2.56,-703.37 -0.95,-1055.12 -2.43,-233.57 30.18,-462.27 76.54,-689.9 36.12,-177.09 76.83,-353.52 106.75,-531.54 21.02,-125.2 26.55,-252.84 40.58,-379.26 13.06,-117.92 28.69,-235.44 42.03,-353.36 9.58,-84.1 24.53,-168.62 24.13,-252.84 -0.94,-156.07 12.81,-311.33 22.1,-466.59 8.36,-140.56 31.68,-280.59 52.42,-420.21 4.32,-29.78 6.47,-68.33 45.7,-85.58 0,67.11 7.55,131 -1.34,192.72 -28.85,199.19 -24.94,400.55 -45.02,600.15 -5.4,53.5 -2.57,107.68 -2.83,161.59 -0.81,150.39 -24.93,298.25 -45.01,446.76 -15.24,111.86 -31,224.13 -38.28,336.67 -13.21,201.08 -53.1,397.57 -92.46,594.21 -45.41,227.23 -88.13,454.05 -102.56,686.52 -9.02,144.75 -17.78,289.63 -7.14,432.76 15.5,209.85 7.01,419.14 11.99,628.71 1.47,62.94 -13.61,123.74 -14.95,185.86 -4.73,198.38 18.46,395.55 26.8,593.12 3.73,87.63 7.33,175.36 8.95,263.12 -24.87,10.03 -49.58,20.35 -74.56,30.17z"/>
  <path class="fil4" d="M10699.35 6141.3c-2.83,323.29 -13.62,646.3 -44.33,968.34 -21.58,224.55 -89.76,437.87 -163.09,649.52 -38,109.71 -78.7,218.67 -129.5,323.29 -183.3,377.34 -475.76,611.81 -893.01,686.77 -313.33,56.27 -609,14.56 -887.62,-141.86 -91.6,-51.43 -180.14,-107.08 -264.9,-169.37 -232.98,-171.23 -375.04,-396.51 -421.44,-683.4 -64.77,-400.27 -134.4,-799.98 -147.32,-1206.31 -12.7,-399.33 31.29,-791.26 145.01,-1176.39 76.56,-259.37 236.93,-409.48 502.39,-455.16 293.54,-50.51 587.01,-97.62 885.88,-105.32 164.69,-4.24 325.6,-42.26 487.59,-70.24 123.19,-21.28 246.78,-31.18 372.38,-13.32 204.32,29.05 345.83,135.49 417.66,328.58 56.33,151.86 92.32,309.43 111.6,470.42 23.57,197.41 33.28,395.58 28.7,594.45z"/>
  <path class="fil5" d="M10741.26 6440.78c-4.32,-118.83 25.06,-236.22 14.42,-355.44 -15.36,-171.41 -16.72,-343.61 -30.72,-515.35 -14.55,-179.31 -53.25,-351.51 -111.2,-519.93 -62.52,-181.81 -190.42,-299.62 -376.27,-347.17 -130.2,-33.28 -263.61,-29.23 -395.7,-6.6 -163.75,28.06 -326.82,60.95 -491.12,86.06 -61.04,9.34 -124.79,6.01 -186.95,2.54 -156.53,-8.77 -310.21,17.12 -463.71,38.55 -122.47,17.09 -245.85,32.63 -365.97,64.6 -71.4,18.98 -138.96,47.94 -205.67,78.97 -112.03,52.09 -180.76,147.25 -227.34,254.2 -81.44,187.07 -127,385.36 -161.31,586.5 -35.73,209.44 -50.43,420.12 -49.88,632.2 0.04,10.37 3.16,21.76 -11.02,35.38 -35.02,-53.11 -49.41,-114.27 -68.93,-170.53 -82.66,-238.5 -193.95,-464.6 -292.22,-696.3 -95.54,-225.28 -138.81,-459.95 -119.72,-703.94 8.14,-104.12 40.15,-204.74 69.12,-304.97 49.45,-171.04 103.85,-340.68 151.7,-512.11 41.14,-147.55 144.12,-234.27 277.68,-287.92 139.06,-55.86 282.13,-101.43 422.58,-153.97 116.66,-43.55 231.63,-91.51 342.62,-148.47 184.82,-94.62 378.43,-166.65 582.71,-203.03 126.54,-22.6 253.36,-11.57 374.79,39.87 140.56,59.72 279.78,123.29 425.74,169.23 124.14,38.95 252.04,59.16 381.28,74.59 114.28,13.79 229.78,24.63 335.71,79.75 93.67,48.87 165.77,115.57 212.14,210.75 19.81,40.78 42.85,79.92 62.8,120.71 58.76,119.8 166.03,189.99 269.14,264.77 142.86,103.81 219.68,245.92 246.91,418.92 10.24,64.59 15.89,128.58 16.17,193.81 1.34,253.41 -66.18,490.64 -162.81,722.04 -67.93,162.59 -158.22,311.6 -250.27,461.42 -76.29,124.05 -156.22,249.46 -202.57,390.47l-5.94 5.47 -6.19 -5.07z"/>
  <path class="fil4" d="M8028.74 8261.87c225.47,273 511.62,453.81 851.14,547.48 300.5,82.91 597.07,45.87 884.83,-60.3 196.08,-72.34 351.47,-204.41 480.05,-368.3 113.2,-144.4 189.77,-308.28 256.08,-477.78 42.04,4.15 19.93,31.95 19.13,51.92 -10.39,246.54 -22.77,493.05 -30.32,739.7 -4.45,149.57 25.87,293.49 95.29,427.19 68.18,131.38 174.51,221.41 310.09,278.3 15.64,6.46 31.83,11.85 47.85,17.5 143.81,50.4 142.6,49.74 71.56,190.3 -135.58,268.61 -330.73,478.72 -597.04,622.25 -154.72,83.29 -307.13,170.62 -476.54,222.76 -249.61,76.83 -496.91,57.98 -747.3,-1.46 -277.72,-66.04 -541.9,-167.79 -795.87,-293.4 -302.32,-149.6 -534.61,-379.93 -707.74,-669.29 -37.57,-62.67 -37.25,-65.37 27.8,-102.69 202.13,-116.17 292.82,-297.05 317.15,-522.62 20.62,-191.24 -2.46,-379.29 -23.72,-568.07 -4.52,-16.61 -15.34,-36.51 17.56,-33.49z"/>
  <path class="fil4" d="M11183.32 6468.34c-3.77,159.95 -34.36,314.3 -102.16,460.01 -49.87,107.01 -119.01,198.84 -219.41,264.19 -33.82,21.94 -69.01,39.95 -111.04,32.99 -31.28,-5.17 -54.19,-19.22 -47.45,-56.3 33.68,-183.92 3.24,-373.19 50.81,-556.55 46.1,-177.63 124.52,-338.87 223.99,-491.49 20.49,-31.43 44.06,-31.28 71.7,-13.51 34.5,22.1 56.74,55.38 76.01,90.01 46.63,84.04 61.99,175.22 57.55,270.65z"/>
  <path class="fil4" d="M7315.08 6378.31c-1.94,-49.08 5.04,-96.72 19.34,-142.97 13.61,-44.06 36.72,-82.7 74.61,-110.88 49.79,-37.07 62.21,-35.08 84.7,21.99 65.34,165.8 129.21,332.18 193.17,498.5 10.2,26.51 14.31,54.29 15.43,83.05 6.12,155.83 25.65,310.28 48.03,464.47 7.15,49.3 2.17,55.75 -46.78,50.46 -82.83,-8.97 -149.91,-47.76 -201.39,-113.26 -22.95,-29.19 -40.68,-61.53 -52.68,-96.52 -72.85,-212.58 -111.46,-432.21 -134.43,-654.84z"/>
  <path class="fil6" d="M10519.97 7954.89c-10.92,-15.65 4.57,-41.01 -19.13,-51.92 -0.96,-23.68 7.68,-42.22 29.38,-56.79 7.27,39.08 8.21,74.78 -10.25,108.71z"/>
  <path class="fil7" d="M7621.56 9383.08c-0.07,-5.51 0,-11.05 0.26,-16.57 13.23,-17.92 30.65,-27.77 60.61,-29.51 -11.85,32.33 -41.26,33.42 -60.87,46.08z"/>
  <path class="fil8" d="M8028.74 8261.87c-14.73,6.5 -10.78,22.82 -17.56,33.51 -4.61,-9.72 -11.6,-18.99 -13.23,-29.18 -1.85,-11.37 -10.62,-30.05 7.55,-32.81 14.26,-2.19 19.86,15.06 23.24,28.48z"/>
  <path class="fil9" d="M10741.26 6440.78c4.04,-0.76 8.09,-0.9 12.13,-0.4 -1.47,8.39 7.68,20.77 -8.9,23.48 -1.08,-7.7 -2.15,-15.38 -3.23,-23.08z"/>
  <path class="fil10" d="M7694.93 6511.74c-0.18,1.87 0.33,4.68 -0.68,5.44 -1.69,1.25 -4.87,2.2 -6.53,1.43 -6.97,-3.29 -6.65,-6.96 0.81,-9.04 1.79,-0.51 4.25,1.38 6.4,2.17z"/>
 </g>
</svg>
